<svg xmlns="http://www.w3.org/2000/svg" viewBox="0 0 290 70" width="290" height="70" fill="#0A1A3A" shape-rendering="crispEdges">
  <title>QRaze — Pixel Wordmark</title>
  <rect x="10" y="0" width="10" height="10"></rect>
  <rect x="20" y="0" width="10" height="10"></rect>
  <rect x="30" y="0" width="10" height="10"></rect>
  <rect x="0" y="10" width="10" height="10"></rect>
  <rect x="40" y="10" width="10" height="10"></rect>
  <rect x="0" y="20" width="10" height="10"></rect>
  <rect x="40" y="20" width="10" height="10"></rect>
  <rect x="0" y="30" width="10" height="10"></rect>
  <rect x="40" y="30" width="10" height="10"></rect>
  <rect x="0" y="40" width="10" height="10"></rect>
  <rect x="20" y="40" width="10" height="10"></rect>
  <rect x="40" y="40" width="10" height="10"></rect>
  <rect x="0" y="50" width="10" height="10"></rect>
  <rect x="30" y="50" width="10" height="10"></rect>
  <rect x="10" y="60" width="10" height="10"></rect>
  <rect x="20" y="60" width="10" height="10"></rect>
  <rect x="40" y="60" width="10" height="10"></rect>
  <rect x="60" y="0" width="10" height="10"></rect>
  <rect x="70" y="0" width="10" height="10"></rect>
  <rect x="80" y="0" width="10" height="10"></rect>
  <rect x="90" y="0" width="10" height="10"></rect>
  <rect x="60" y="10" width="10" height="10"></rect>
  <rect x="100" y="10" width="10" height="10"></rect>
  <rect x="60" y="20" width="10" height="10"></rect>
  <rect x="100" y="20" width="10" height="10"></rect>
  <rect x="60" y="30" width="10" height="10"></rect>
  <rect x="70" y="30" width="10" height="10"></rect>
  <rect x="80" y="30" width="10" height="10"></rect>
  <rect x="90" y="30" width="10" height="10"></rect>
  <rect x="60" y="40" width="10" height="10"></rect>
  <rect x="80" y="40" width="10" height="10"></rect>
  <rect x="60" y="50" width="10" height="10"></rect>
  <rect x="90" y="50" width="10" height="10"></rect>
  <rect x="60" y="60" width="10" height="10"></rect>
  <rect x="100" y="60" width="10" height="10"></rect>
  <rect x="130" y="0" width="10" height="10"></rect>
  <rect x="140" y="0" width="10" height="10"></rect>
  <rect x="150" y="0" width="10" height="10"></rect>
  <rect x="120" y="10" width="10" height="10"></rect>
  <rect x="160" y="10" width="10" height="10"></rect>
  <rect x="120" y="20" width="10" height="10"></rect>
  <rect x="160" y="20" width="10" height="10"></rect>
  <rect x="120" y="30" width="10" height="10"></rect>
  <rect x="130" y="30" width="10" height="10"></rect>
  <rect x="140" y="30" width="10" height="10"></rect>
  <rect x="150" y="30" width="10" height="10"></rect>
  <rect x="160" y="30" width="10" height="10"></rect>
  <rect x="120" y="40" width="10" height="10"></rect>
  <rect x="160" y="40" width="10" height="10"></rect>
  <rect x="120" y="50" width="10" height="10"></rect>
  <rect x="160" y="50" width="10" height="10"></rect>
  <rect x="120" y="60" width="10" height="10"></rect>
  <rect x="160" y="60" width="10" height="10"></rect>
  <rect x="180" y="0" width="10" height="10"></rect>
  <rect x="190" y="0" width="10" height="10"></rect>
  <rect x="200" y="0" width="10" height="10"></rect>
  <rect x="210" y="0" width="10" height="10"></rect>
  <rect x="220" y="0" width="10" height="10"></rect>
  <rect x="220" y="10" width="10" height="10"></rect>
  <rect x="210" y="20" width="10" height="10"></rect>
  <rect x="200" y="30" width="10" height="10"></rect>
  <rect x="190" y="40" width="10" height="10"></rect>
  <rect x="180" y="50" width="10" height="10"></rect>
  <rect x="180" y="60" width="10" height="10"></rect>
  <rect x="190" y="60" width="10" height="10"></rect>
  <rect x="200" y="60" width="10" height="10"></rect>
  <rect x="210" y="60" width="10" height="10"></rect>
  <rect x="220" y="60" width="10" height="10"></rect>
  <rect x="240" y="0" width="10" height="10"></rect>
  <rect x="250" y="0" width="10" height="10"></rect>
  <rect x="260" y="0" width="10" height="10"></rect>
  <rect x="270" y="0" width="10" height="10"></rect>
  <rect x="280" y="0" width="10" height="10"></rect>
  <rect x="240" y="10" width="10" height="10"></rect>
  <rect x="240" y="20" width="10" height="10"></rect>
  <rect x="240" y="30" width="10" height="10"></rect>
  <rect x="250" y="30" width="10" height="10"></rect>
  <rect x="260" y="30" width="10" height="10"></rect>
  <rect x="270" y="30" width="10" height="10"></rect>
  <rect x="240" y="40" width="10" height="10"></rect>
  <rect x="240" y="50" width="10" height="10"></rect>
  <rect x="240" y="60" width="10" height="10"></rect>
  <rect x="250" y="60" width="10" height="10"></rect>
  <rect x="260" y="60" width="10" height="10"></rect>
  <rect x="270" y="60" width="10" height="10"></rect>
  <rect x="280" y="60" width="10" height="10"></rect>
</svg>